<svg xmlns="http://www.w3.org/2000/svg" xmlns:xlink="http://www.w3.org/1999/xlink" viewBox="0 0 179.15 179.21"><defs><style>.cls-1{fill:url(#linear-gradient);}</style><linearGradient id="linear-gradient" y1="89.6" x2="179.15" y2="89.6" gradientUnits="userSpaceOnUse"><stop offset="0" stop-color="#185a9d"/><stop offset="1" stop-color="#43cea2"/></linearGradient></defs><title>Asset 8</title><g id="Layer_2" data-name="Layer 2"><g id="Layer_1-2" data-name="Layer 1"><path class="cls-1" d="M179.14,89.39c.7,48.38-39.34,90.15-90.71,89.82C40.06,178.89-.07,138.48,0,89.69A89.54,89.54,0,0,1,89.69,0C139.64,0,179.69,41.23,179.14,89.39ZM79.4,74.06l.44-.18a14.92,14.92,0,0,0-.86-2c-5-8.36-10-16.7-15-25.07a37,37,0,0,1-3.18-6.11c-.44-1.23-.54-3.4.17-4a5,5,0,0,1,4.26-.51,11.74,11.74,0,0,1,4.65,3.3c2.45,2.88,4.62,6,6.79,9.11,5.92,8.47,11.77,17,17.66,25.47,3.09,4.46,5.93,9.11,9.36,13.29,3,3.73,6.36,3,8.49-1.39a26.12,26.12,0,0,0,2.31-13.71c-.39-5.41-1-10.81-1.39-16.22s.92-10.35,4.8-14.37c1.37-1.42,3-2.85,5.07-1.92s1.39,3.19,1.12,5c-.67,4.5-1.47,9-.18,13.51,1.83,6.43,3.62,12.87,5.46,19.31,1.94,6.8,3.6,13.58,3.11,20.8-.35,5.26,0,10.57,0,15.85.1,7,1.1,13.8,4.62,20,1.47,2.59,2.82,5.25,4.32,7.81,1.73,3,3.73,3.21,6,.66,16-17.91,23.17-38.89,20.21-62.74-2.87-23.13-14.33-41.49-33.33-55A74.7,74.7,0,0,0,94.91,10.87C74.16,9.64,55.5,15.53,39.43,28.93c-16.25,13.54-25.62,30.91-28,51.88-2,17.83,1.62,34.6,11.31,49.74,15.71,24.56,38.37,37.1,67.53,37.46,10.31.13,18.15-4.78,23.07-13.84,4.19-7.72,8-15.64,12-23.44,1.91-3.7,4-7.31,5.9-11,.77-1.51.8-3.14-.93-4.09s-2.95-.4-4,1.14c-1.49,2.13-3.09,4.19-4.65,6.27l-7.3,9.62A6.79,6.79,0,0,1,115.5,130c3.92-5.88,7.89-11.72,11.73-17.66a14,14,0,0,0,2-4.87c.19-1-.37-2.84-1.13-3.21-.91-.45-2.42.16-3.61.5-.5.15-.91.75-1.29,1.21-2.78,3.38-5.57,6.77-8.3,10.19-1.54,1.93-3,3.92-4.48,5.88a3.07,3.07,0,0,1,.7-1.9c3.09-4.46,6.28-8.86,9.24-13.41a14.7,14.7,0,0,0,2.27-5.44,2.7,2.7,0,0,0-4-2.73,10.77,10.77,0,0,0-3.54,2.92c-2.82,3.75-5.43,7.64-8.13,11.47-.86,1.21-1.73,2.4-2.59,3.6,1.56-3.52,3.56-6.73,5.35-10a48.57,48.57,0,0,0,3.14-7.12,2.94,2.94,0,0,0-.71-2.7,3.39,3.39,0,0,0-3,0,13.47,13.47,0,0,0-4,3.52c-5.31,7.44-10.48,15-15.69,22.51-1.9,2.74-3.61,5.65-5.73,8.22s-4.33,2.35-5.42-1a30.55,30.55,0,0,1-1.32-8.93,98,98,0,0,1,.89-9.77,13.31,13.31,0,0,0-2.74-10.07c-1.12-1.36-2.57-3-4.52-2.16s-1.25,3-1,4.56a24.21,24.21,0,0,1-.91,11.67c-1.1,3.26-2,6.6-3,9.91l-.58.14c-2.56-4.58-5.32-9.07-7.62-13.77-2-4.13-3.15-8.72-5.36-12.72-4.13-7.48-8.79-14.66-13.17-22-1.64-2.75-3.21-5.54-4.59-8.42a3.42,3.42,0,0,1,1.33-4.85c1.9-1.12,3.42-.41,4.72,1.09.78.89,1.49,1.85,2.22,2.79L64,94.52c.64.82,1.25,1.68,1.87,2.52l.71-.65a12.86,12.86,0,0,0-.83-1.71C61.29,88.15,57,81.54,52.39,75.14c-4.16-5.79-8.78-11.26-12.92-17.07A16.12,16.12,0,0,1,37,51.52c-.38-2.32,1.52-3.58,3.49-4.34s3,.41,4.08,1.82Q55,62.7,65.45,76.31c1.21,1.57,2.63,3,4,4.45l.51-.42c-.54-.94-1-1.93-1.63-2.82C61.9,68.09,55.44,58.73,49.17,49.24a18.2,18.2,0,0,1-2.75-6.65c-.2-1.11,1.1-2.92,2.21-3.67.83-.56,2.7-.33,3.68.25a18.1,18.1,0,0,1,4.71,4c4.46,5.57,8.84,11.22,13,17C73.33,64.7,76.3,69.43,79.4,74.06Z"/></g></g></svg>